<mxfile host="Electron" modified="2023-11-06T10:04:01.621Z" agent="Mozilla/5.0 (Windows NT 10.0; Win64; x64) AppleWebKit/537.36 (KHTML, like Gecko) draw.io/21.8.2 Chrome/114.0.5735.289 Electron/25.8.1 Safari/537.36" etag="rZYadUygV4fnKten3GGz" version="21.8.2" type="device">
  <diagram name="Seite-1" id="5zQS0J8gBVhOqoGNaELO">
    <mxGraphModel dx="2868" dy="1688" grid="1" gridSize="10" guides="1" tooltips="1" connect="1" arrows="1" fold="1" page="1" pageScale="1" pageWidth="827" pageHeight="1169" math="0" shadow="0">
      <root>
        <mxCell id="0" />
        <mxCell id="1" parent="0" />
        <mxCell id="Nm489pgh-CyMTp9Xrosg-12" value="" style="rounded=0;whiteSpace=wrap;html=1;fillColor=#FFFFFF;strokeColor=none;" parent="1" vertex="1">
          <mxGeometry x="52" y="700" width="1520" height="550" as="geometry" />
        </mxCell>
        <mxCell id="p6Hplbf515QG52RDosSm-1" value="" style="shape=image;aspect=fixed;image=data:image/PNG,iVBORw0KGgoAAAANSUhEUgAABdwAAAH1CAYAAADs2TyJAAAAAXNSR0IArs4c6QAAAARnQU1BAACxjwv8YQUAAAAJcEhZcwAADsMAAA7DAcdvqGQAADHSSURBVHhe7d0PkF1XfR/ws7ZsILIsJARBMhkDkmjcJCQ2EJM/KLHSTummdtqmLVOEmiHDRGNUxm3kFYmsoJUBkUo2DS2pUiZpaGXReNpmBmfYNh2QiUMITQJKWhIlSIpxiCQIQkI2wsaWvT3nvntXV09vtf/Ovr337ecz8/TOvW93tft+99w/33feeUPjUVgAQ0NDYS7/9dDo6bLVMT66qmwBADBf9uzZE3bs2FEuAQDQBs7hoH+uKu9b78c/UjYAAAAAAGABtDJwv+9w2QAAAAAAgIZoZeD+8JGyAQAAAAAADTEwU8oAAAAAAMBCamXgPnaibAAAAAAAQEMMzAh3ITwAAAAAAAup3YH70lVlAwAAAAAAFlY7A/fzp8sGAAAAAAA0Q/unlDHKHQAAAACABhiYOdyNegcAAAAAYCENTuAOAAAAAAALqNWB+/ANZQMAAAAAABZY6wL3+w6XDQAAAAAAaJDWTyljlDsAAAAAAE3Q6sD9tpvKBgAAAAAALLDWBe5331w2ejDdDAAAAAAAC8Uc7gAAAAAAkEHrAveHj5QNAAAAAABokNZ/aCoAAAAAADSBwB0AAAAAADJofeB+201lAwAAAAAAFpAR7gAAAAAAkEGrA/e7by4bJR+oCgAAAADAQmld4D52omwAAAAAAECDmFIGAAAAAAAyELgDAAAAAEAGAncAAAAAAMig9YF79wenAgAAAADAQmhv4L50VdkAAAAAAICFZ0oZAAAAAADIQOAOAAAAAAAZtC9wP3+6bFxu7ETZAAAAAACAPjPCHQAAAAAAMhC4AwAAAABABgJ3+mpo9HRx+/GPlCsAAAAAAAaEwJ2+ue9w2YjGvjD5XPwAAAAAAG3U2sB9+IaykSxdVTYAAAAAAGBhGOFO3zx8pGwAAAAAAAygVgXu9SlJaD/zuAMAAAAAg2SwRrifNy94k42dKBsAAAAAAAPIlDIsGAE8AAAAADBIBO4AAAAAAJBBawP3j725bNBepgACAAAAAAZIawN3H6AKAAAAAECTmFKG/jGiHQAAAAAYYK0K3B8+Uja6DN9QNmgd71QAAAAAAAaFEe4AAAAAAJCBwJ3+W7qqbAAAAAAADI7WBu5331w2aJ/aXO6TTRMEAAAAANA2AzfC3ZzgzTf8KiPcAQAAAIDB06rAfexE2aB1JnshRE0BAAAAgEFhDncAAAAAAMhA4M7C8MGpAAAAAMCAEbjTd7fdVDaS2geoAgAAAAC0WTsD92mOjv7Lb5QNFtzdN5eN0vANZQMAAAAAYEAM7Aj3oX0hrL3vdBgaNYK6CSb70FQAAAAAgEHRrsB9kulHLpmiJCrC3drX/vhHygYL5uEjZaMHYTwAAAAAMAgGcoR7d7g7dqJsAAAAAADAPJkycD9+/HjYsmVLGBoaCjt37gxnz54tH7ncvn37wujoaLkUinb6vnRLj/XLZQG7D+ZslDSfe/e7Emi+NE1TmqLJO0ZgsJmKDQZbemehfg6D795PlQ0WhWrf7loNoBmmDNwPHDgQ1q1bF86cOVMsj42NFffdUri+ffv2cimEgwcPhlOnToVjx44V33vu3LliXQ5X+sDNK01dQj7pYD6TA7p3GQyA8oWrsS+4SF8sUv8WyiwuVb3VffGoXkxN9ywOIx/v3Ovni4d+vvikWu/6uM8zW0yqfXu6VjNl6+Lwyb8p9+36+aKS6u2FtXa4YuCeRren0HzNmjVhxYoVYfny5eHo0aPloxel0evr168Pu3btKteEcPLkybB69eqwdu3a4nuXLFlSrFsoDjr51J/Levi6+5Ox8/+7zgleuj333HOdwC6d3L+08zW9eJGk+br7j/40+FKNq/7tJG5x6O7XTuQWiepdgPHevn2R8DlHi0+tn6v5IqGfL2qurxeH2/5z2Yicwy0O1QvnBkG2w5Qj3JctW1YE55ULFy5cNq3MyMhI2LRpU7nUkUL6FNan0D59ffq+8+fPl4/O3Ix2INUJxtJVnXuy6j6AFwH76Okw+sn4vJ+Jt/T8x9vV957p7AjS8vF4S8qapGllaI/umo880umTDuyLx/2f7dyr+eIxdqFsMLC6+/Nzz+rjg667vkZCDr5e9U3r1H3xqIIZNR9wtRdZ6jVX9wFWq/nI/x5X70UmZXBq3mxD41HZvkwKy/fv3x+Gh4fDxo0bi5HsaWqYbdu2FaPWu1Xzt9fvd+/eHW6//fZwyy23TKxL0rzuM3Lr5hDe+P5O+7EPhvDh3UVz69at4QUvfXW478I/LpbD1Z8J4dnXd9p1cf17r/6/5QJzcc8zfz+E8e8ol2bmvdd+qGzFn/P0z3QaatN49zz76t79ahrqNac95lLzMPSl8N5r/me5QFs8+tzq8KsXbi+XZkY/b6ezz626eP40Q2reTmq++Myl5u+65iPheUPfKJdoi7nUPFz9qXhd9mflAm0ycW09U67FW2vWNY8c09tJzdtlysB97969YcOGDcUI9hS4p1HqVWjerTtwr0vrli5dWoyGT1LgfoX/+jLpVZuRj3ZewRt+1arwsTcXzQnVlAfpseoV3e529/cwO8XbWGqvphaWrgr7/k7vkevVK27dj01MUxG/d7yzWUys+7V/vir89N8qmjRAz5pPV6xv+tyF6oNyvbuhHeZU88qNcb/wfZ2mujff0L+N/5ybfc3TcVY/b5f0zpW7f2v2+/bJjvs0V/18ejb2/cSqoubp56h9O2SreflOt7tf07mnueZa8/HRVUW9U63VvR1y1TxR63aYa83Dynge90Pq3SZzrnk6d9/Yaap7f1wxcE+qoPxtb3tbuP/++8NNN9102fQxlXrgnj4g9ciRI8Vo+MOHD4cHH3wwvOlNbypGyidzCdyrE7+6enhbhUT1wD1JBxLmbiKIqwXls9EduHcHfOrVHN21qfrgbzwawmc+F8ILl5cPRFe/IIR3pYExJy5+/WXKoCZxwd5M9ZpXfTHth5MLT4fw1Pm4/lvxFnfjxRuW4u3euD2Er1yh7nVpXx29+wdDeP63dbaD9PNtDwvnkn7+krhffntn3tcffmUI3/pGCN94IoTrlnVqP3RVmmIu1uxL8WvTVGJTKesdrglh74Z4PL9FvZugVz//y1jrA38QwnPPhPB4rPX1cZ9+/qkQno19fPzZED5wKn7R6SlqXtU7qkL5qt7qvrBSn67OjevhefJ4rO3ZJ0N45rkQno63uAmE58W+/mt/FRtPzKCfl3b/QAjvjLd/3zVwUv37q7vmler4feKxWOu4P/9m7N/Xxnqndb/yxfgF35hGP49f++zPhvD+PynXReq78FKfrq6b3/X9q8Lb4+X3T/9m53j+tdjPn39tCEvibSgek499JYRXxGP7u9P0kVP187KP/9x3hvCilxXNgn37wqvXvH7enmry3k/Hw/aX4/lb3K+vWR37bNzPj8c+f+//i19Uu767TNexvJt6L6x6zat9e6rJe2K9V68M4W/iefuz8UD+bLxeS339mcfjY+la7avT6+eFeI22L16rVfT1hVWveX1AcVofYv++Kh7DH48Pj6cTuHh8Tu6Nx/jw5WnUvKy12uY1ZeBejXL/0Ic+VHwoaj1UTx+UWg/f649V92lKmeSBBx645Gv7FrifiI3agaTX9+awmHY8vUamz0b956SDeFXfCWUt/8NPrgp3fk+5jgUxEcrMoOZfjydyK97TVdMrSfVOrg5hV6z3dXHRDn/hzKbmlYm+nUO1XZTSvuKJeNFw3Yvj/xO3lV6q7cYJ4cz0Cl+nI0u9a3U+fmfn/pXXXayhWs6PBa15XVc//6O3hvCK60P4T3/aWVb7fBpT80qt9r/+EyH8yedDuOEVl/Z7/X9u6oH7gu3b04V/uux7Xrw+jOd4S194sbaJOufV64W16cjWz7v26an++26L9U0j5tV8XqTn8kpZyWSy7turui8N4fYVIWz4zs5iRa3zmnXNd8dvnOX0wJco6/2za0NYHY/bvah5XrOuee3cb8Zqx/GTbw/h4F+o60xMGbjPl5kG7lOdOEwcLNIGUW5M6euSnkHut8f9zL/oLO76XyEsi8vdPzNt0D96YwivXVmumET9/05TZyRF0B83yn/zoyFcdXXnZ6efV6mWq/+zu510f01T1P/eOQXutUAvvCS2H+2qU40pgRZWrprv/aMQ3vlwbMx1h/+CeIu7j70/EMLTz8Trt2vj8lWX96Gkaf2nLXLUvNp/pfuR3ylXplfcK7PdDmar2n7qqt8hPVZvJ3GbGt92+fY02XLbt7/6PnkuNa+M/G785+l4qw71uepd1SfuB/48Hsd/63jvOjC12dZ8z5494R0jPx/+4+fL4TPR07HW93wqNlK9c9d8pqptJNq2LoT74zbyO3Fb2ZDONaLqbfPVcWMxbTuzDdzr6v38qSdD+M1HQzh8slyR9KvutTpPBLrxfGDfhmJNoarpYp4qYa41T/Wu+sm3ngph5++VD6Tnux+1rte5Jr0A/7W/DuHq2I9fuKZcGRW/6yKfGmO2L7IkO38rPp8vq/WdWPdvfC2E3emdKs/G23zVvKzz1leE8PK1RXNCtf3VVb8fHbN9kSV511gI16/uPKcf/0oIf/dgXPlc57Ep3+kyV736d9qfL4l/x4/E7TfuZ9Jx5gXPj+tiX5/4vWr085nVPJ3D7dixY6JPpe8b/e3Yx9M7HpL52reXtR59XQjXxHP4a+Px+uEjpp2dibn086Q6nidFLpOuz1O9c/fzql9fF/cvcZ+eFlMm2i39LvV9e7Ecj9/Fi7MDchwfvMC9pv51/+S/hvA//mIedhwLodeBqeZfxZOUX4oXl//0O0L4/to86PUNuvv5m670/dULGHMNwesXABPi35Yu+nvVU+i+cHIF7pX6jnXk42Ujme8Lt1rfSRdqT32zM51J3Wz7xqDJXfMrqR/8i31MfZtI+nFB32/VtliFRPG+mF4nvZhUqj8n/dgu+1nzJP1dr1gRj8//rVzRzzqn5/+aeB8v3v70rSH87WWd1f16rptitjWvLtamo3pO033li/Ec5fnxxPv+Y+WKpOn9vOqzNWnKlCfPhvDPfiiET6S37Jaqv7d+3xQ5Xlibru7aV+2zJ+M2lKavqC4DmlL7HjWupHOGu75vPHzgjzsvMjWxtpPJ8SLLlVT1rYx8Iv7TfYnXtP5dq/XI+hBecmO5EFU17d5uq3ZS1b6p20A/at7996dw5Mt/HffrX+gsF/pR9+5+uzz219eV7VL1u1btQTTfNU/qdX/mWyHsSC+yJ03s72m7SL9H1/axK/7+6R2y6V02dW3cRmb7wtpMzuGSet3TcfDPvz4UXv2r5YPzWevuvh2vGe69KZ6+L+mE9em1l3rdkrbUbrbmGrhPpXoui4FyF+Ktaedple5tI24T6Vr6u+Lqn3xR3E4+31mdpskJT8Zb+juWxm3/lhB+/vXpgYuq7bu7ncuiCdyT+s/IbnWs7qmGbYjTVd9gr4nP249c3HnV75PUzhW496pHdbBI/8/bvieEF8bOU6/tfJ1AMLmcNZ+u+raXjHwy/pN2+pV+7vS7d+jRL3x3PJ9/Sdwey9GRSffvXKkeb5N6zefjYJ5T9XzXn/vU3ve5EG57eQiv+7XOusv0OAmfkPKU+R7Rk0P1+y8LYefL4jZZvsNqtvWa2NdetyqM391pLoReNR2KZ9XfqkZQJ/3aB3RtI+/+octfFKn/vkn3cpP1I3Cfjeo57OXJb3bmIb0+7oNHDoXwL18ZwgdT2J1GXlaadmFQ12u/Ey/+3/eGEH7udfO//cy25v1Ur381+u32tZ13s4ykx77WeWxCk+qd6lu9kBrd+4MhvKDrc0qq+37p54ss01V/LpKqzicejX07Pl/3ps8H+XrnsYnjdZP7daWrf++If9O118XVtc86KsRjWjWCbz5G7/UjfJ2per+u1754N9y3Ou2+17herxXxFvvtvtfGY8wz8TTwb0L4theF8Lw0srrUz347U02teb3WL1kawk/9n9j4crzV9pMTfbxqN031u5W/c3qRbmU8516SQr6o/jcm/dpOhu6L/5TXK/MZuE+lu86pnUbMX5fO0/o5sK6XXseOrn7/rngNtfuNl/7+TTX0gfjP2ZnXPKde9b4/Hsse/2o8dlfvkkia2Jdnq77NVF4YwqObQnh5bfDmxOj88jlKBidwrx1kKlfaCOtPQrWxpB1Cupj+hd+LO4nvj8/r9Z31SXps16tD+NyZEN5yawiPxfuReECu/5yk13JS/7/ujD/nV/44hHPxYPPa2L7jOy79vup7tnz3eFh2zVDnLT7pbXxp2owkvUW/kv7mXjuS+VL7v+YaxHUH7pOFucXf//udr0s1PRyf+1t+M7bfVqyiD6oL9CaGr919LKnWpdGz3x4vdN7w653lwkLv/KsddjyBv/f7OifyV/U4YVvI5zn9Dv1+kaXJqpokvWpUX+5+7FDcz3/60XhcSSO+4sXbJeZ7Wyy3tTQyszLZdlWv+a4fXhVGa9/TdOl3rz/3ycin4z/prcfn463XqcZC7Ae6Ttaq4Kv++09Wn/lS7dtn2s/nO3CfD/XtI6me6+71yWN/GcLqeAF2TwqC6tvPQh0/4raTpix8fTxffEE8piWz3VbaELjPVVXT7v1C9/LI78d/0j4ivdulPt1Z0qf9c1Lso8tpEuYlfF1ENb9EfE7XxAviPz0S91npHRV1C30u2Eu1TcQ+vu/1l26vM+3vTXyRZSbS3139/d33aYTt+z41FHZ9pvzi9HemD35K+jVYotZ/k723xee8nC6h1+/dD00M3HO40nNZrStCyKdD2PLyEF75ihDe+Udx+YniSzoWur937++jHNvFbGvepHO4el2Lz397IDbSn1Sdey107Sq1Gj7wD0M49Y1yIcpRy+lqcz/v7sv1+0r3cvKtJ2P3fjyEe9O7YtNo9UpTto0pLNrAfbHotQHf/NIQ/vvvhfArj5YPJLPYYHOEr9O92J+4WOiixvMvbTNtGe08G+nvq+/cf/BlIfx2PFF7+StD+OmHOusKC7VT7zpJ68fzP+g1b4Nqe6y2zXS/+1AIo5+LK9OhM8co/LRtlRf2aXRhdYxdjC+yVM93eh5e9+3xuT4eF8511i1I34+1qUbTz1f/q/fzxRC4z7eqn1bbUt1XvxTC3qOxUYaql8ixfZXHielcyC+G8HW+VLWt1/mVK0P43OdDeO+fdZYLOfcZ1TlA3Bf88m0hfLMcdDOT/YKaT0+v+lbP82SPpfZlU+ik+qe6zcexo6uvJ722BTW/vIbJL/5hCD+fXmirRtRX+nGcL2v3vg3lyOg0KCDqVb/ZaPuLLAuhuy9XtXjPpzsDMC/Rr23kebF/v6GzONW2MduaD8o5XHcfT8vXx+dvy1gIu743nsun0db1dz9W76qYz1qmGsb/J31IdFKNdi7aGfp6mwP3ppisHr/z5RD+8FSnXUypk97dVL1wV20zqb4z3H5aGbj32rgE7nnVN8ShX+q0i9E/tee4n89vr+lnEmHg/Jvqxa7FKvWR+nNRLafnqxqF+M24k96V3jpZfUhIddCf4Y76itKOP0lT3PxUnoN6+hkC9/apap9MvIVzFtuamk+tu5/Vl6v2l7/YNUd5krvvx5PB8Xd0FtP/O5O6pa8XuDdHtd3UTQR5s9luqmPDktinf7TTTGZbc2avXtvUR4f+S2x8Jd5y7Q9irSd7sWUu/Zw8qn1z/T55x6tDeF/s48W7mKtL4rlsE7XtoKp5Wid8nbnuWlXtkUfiQvc7zXMq99tTvaDSixdZ+qu+bdSl68CXxuPuC64K4ZfjeeCEuQySiTW9/WUhbPjOzmL1f8625s7hrizV9unYz9M88XM6D+tlDn088cJas1T7gW7nHw/huSc7U+wMTOB+WSBrIxwol9Q37ahqO73R21aFpdeF8Hi8eLlm2cW3Wycz2YHRW/25F8Tll3bU9ee0OKH/g9iIO+oJc7wAu+uVIbws3qZbOzUfLNU2VmxbfxJXfLWzfrLtSs37qzpZKz6rIr0oN9cT+3SMLN+5kExWy2J7mOULay7WFka9LydzuRDUz5ujqmdyWaCXzLS+aR+wJIR33xrC73/x4vFc4N4O1fZQ9fX0Af/PXojXO+ncMJnB9qDm/VPtn+vt3fG4PpqmN6nkeGdi1CusE7i3R31bKd69+tlOe9bnfjOsuXO4uatqWFwznyxXJnN8YaVwVezjGy9uI3X6efu0JnCf6u0TAvfF4Uy8CFl5bY96T6Xcgd37+ksD+UqvHRod3rrUPOkgv+W7Q7i+muduJido1cH8RfFgHrf7Xtu+wH3xSNtSUrx17uv6eRNVNfp6PKF/71/FRjVv5EwvzGLfr+aZTX06/VyB++Ap6jqNd7jYt7dTtT84//UQRj8fG0+lhentC9R8cFTbQTKS5jJPx4Ue24HjeTOl+lXH4aIvpynH5jKNXTq3L7/PiyztV98+iuP5FNvETGvuHG7+VfvoiTqmF97qHwQ+XbFvpxfYqmO3wL19BO601oxD99lIJzCVZfFi5day3cOgXsQI3Ntnbzyov/PhcmEWB3XhK7TDZSf0ab7K6U5VsTz27XOdrxO4D776BV/6AFaBzGCp9gVXCmcczwdftR0kg3pdshjU63jq0RDenz5XpjLF8V0/H1zVdvHEl0O4N73gOsvrc+dwzVKcn81wKtBt37sq3PePygUabWAC92TiFZ/Iq7uLR3XwqQKH6j7No33myRB+4jfig9PceWVTBfXlW4K6tekkeKLveRGrtao+Mpt5vZ24Q3td0vev0O9drMFgSvuA5y0J4R3fU64AWq9+vTuSPtwzXu9Wx3jvZGEqzuGabTrn7vp5ewxs4G4jpJfqBKW7PfTB+E86WXlhvFVv96mbQUA5I/UR9LH5M0tDWL++XC4t9HbsrUuDb+8fhvDONH9093au5jBQ0nHv4SMhjJ2IC1V/n0U/d7EGANA+zuHao8qr/iCest/663HFFHkozTOwgbuNkPlQveKYdnz1wP59nwlhx+/GxrXxNh+fXl8G829/eQivWFc0LzGfobzAfXFJ23UxpcwzcT+q3kAPLtYAANrHORz0T/sC9yuEfhNzel8Xv+buciU0QBXO18PMS+QI5stQ/he+K4TrVxfNwlzD+CpwN00TAImLNQCA9nEOB/0zUIE7DIJ6OD/+bAjbZ/Phl72kQH5lCPtumX4IX7xA8NHO/2uaJgASF2sAAO3jHA7656ryHmiIKtRO9yOv7UzrUdxGVxW3FHzX74vpk66Pt3KE+6RSYP+l00WAnkatF7d9ITz33HNFsA4AAAAAzI3AHVqmHshXxn/2YiifgvgqjH/P3yuD+MnC+POnw9X3nrkshE+3NEUTAAAAADB97Qncc8xxDYtACuKrMP6eHyiD+K4wfu8dVw7h0y19HkI1nQwAAAAAMDUj3GERqcL4kVsuDeGLaWmWlyH8JEF8fUQ9AAAAAHA5gTssclWQPv6vyxC+FsTv/QedAP4Ld/cO4QEAAACAiwTuQE/FSPjyQ1vXX1euBAAAAAAmJXAHAAAAAIAMBO4AAAAAAJCBwB0AAAAAADIQuAMAAAAAQAatC9yHbygbAAAAAADQIEa4AwAAAABABgJ3AAAAAADIoBWB+32HywYAAAAAADSUEe4AAAAAAJCBwB0AAAAAADIQuAMAAAAAQAYCdwAAAAAAyEDgDgAAAAAAGQjcAQAAAAAgA4E7AAAAAABk0LrA/babygYAAAAAADSIEe4AAAAAAJCBwB0AAAAAADIQuAMAAAAAQAYCdwAAAAAAyKAVgfvDR8oGAAAAAAA0lBHuAAAAAACQgcAdAAAAAAAyELgDAAAAAEAGAncAAAAAAMhA4A4AAAAAABkI3AEAAAAAIAOBOwAAAAAAZCBwBwAAAACADATuAAAAAACQQesC97tvLhsAAAAAANAgRrgDAAAAAEAGAncAAAAAAMhA4A4AAAAAABkI3AEAAAAAIINWBO5jJ8oGAAAAAAA0lBHuAAAAAACQgcAdAAAAAAAyELgDAAAAAEAGAncAAAAAAMhA4A4AAAAAABkI3AEAAAAAIAOBOwAAAAAAZCBwBwAAAACADATuAAAAAACQgcAdAAAAAAAyaFfgvnRV2QAAAAAAgGYxwh0AAAAAADIQuAMAAAAAQAYCdwAAAAAAyEDgDgAAAAAAGQjcAQAAAAAgg3YE7udPlw0AAAAAAGgmI9wBAAAAACADgTsAAAAAAGQgcAcAAAAAgAwE7gAAAAAAkIHAHQAAAAAAMhC4AwAAAABABgJ3AAAAAADIQOAOAAAAAAAZCNwBAAAAACADgTsAAAAAAGQgcAcAAAAAgAwE7gAAAAAAkEGrAvfhG8oGAAAAAAA0zETgfvz48bBly5YwNDQUdu7cGc6ePVs+crl9+/aF0dHRcimEQ4cOhTvuuKP43vQz0s9K0tekdemWHk9fBwAAAAAAg2gicD9w4EBYt25dOHPmTLE8NjZW3HdLIfr27dvLpVAE8ylIf8Mb3hDGx8fD6tWri5+V1l+4cCE88MADxfqHHnoobNy4sfwuAAAAAAAYLEXgnkaknzp1KqxZsyasWLEiLF++PBw9erT4gro0sn39+vVh165d5ZpQfP2SJUvKpY6lS5cWwf1TTz1VBPAAAAAAADDoJka4L1u27JJwPI1O755WZmRkJGzatKlcuiiNej9//nwxdUwK5NPXfeYznwn3339/+LEf+7FifX0KGgAAAAAAGDRD41Ea4b5///4wPDxcTPuSRrKfO3cubNu2rRjB3q0Kz9N9+t69e/eGDRs2FGF8/bFKCu5T+J5GzqcwPkkh/LTt+mrn/rEPhvDh3Z12aevWrcXIfAAA5l86R0zndAAAtIdzOOificC9HpqnwD2NWJ9sVHo9VE/zt6f53u+8886wdu3acPDgwfDII48U87yn5Up3EJ8C9zS3+1TuOxzCyEdPF+3hV60KH3tz0QQAYAHs2bMn7Nixo1wCAKANnMNB/xRTyqRgPE0nc/LkyWI0enrVK00NMx033nhjeOKJJ4opZJL0M1784hcXoXsVrldzxE/3ZwIAAAAAQNtMzOG+efPmcOzYsbBy5criQ1CrudpTaJ5GrU8mhfVvetObwoMPPliMWk8/461vfWtxS9K6devWFYF+r/nfAQAAAABgEBRTypTtvjKlDABA+3g7MgBA+ziHg/6ZGOEOAAAAAADMnsAdAAAAAAAyELgDAAAAAEAGAncAAAAAAMhA4A4AAAAAABkI3AEAAAAAIAOBOwAAAAAAZCBwBwAAAACADFoVuN92U9kAAAAAAICGMcIdAAAAAAAyELgDAAAAAEAGAncAAAAAAMhA4A4AAAAAABkI3AEAAAAAIAOBOwAAAAAAZCBwBwAAAACADBofuD98pGwAAAAAAECDGeEOAAAAAAAZCNwBAAAAACADgTsAAAAAAGQgcAcAAAAAgAwE7gAAAAAAkIHAHQAAAAAAMhC4AwAAAABABgJ3AAAAAADIQOAOAAAAAAAZCNwBAAAAACADgTsAAAAAAGQgcAcAAAAAgAxaFbjffXPZAAAAAACAhjHCHQAAAAAAMhC4AwAAAABABgJ3AAAAAADIQOAOAAAAAAAZCNwBAAAAACADgTsAAAAAAGTQ+MB97ETZAAAAAACABjPCHQAAAAAAMhC4AwAAAABABgJ3AAAAAADIQOAOAAAAAAAZCNwBAAAAACADgTsAAAAAAGQgcAcAAAAAgAwE7gAAAAAAkIHAHQAAAAAAMhC4AwAAAABABgJ3AAAAAADIQOAOAAAAAAAZCNwBAAAAACCD9gTuS1eVDQAAAAAAaB4j3AEAAAAAIAOBOwAAAAAAZCBwBwAAAACADATuAAAAAACQgcAdAAAAAAAyELgDAAAAAEAGAncAAAAAAMig+YH7+dNlAwAAAAAAmssIdwAAAAAAyEDgDgAAAAAAGQjcAQAAAAAgA4E7AAAAAABkIHAHAAAAAIAMBO4AAAAAAJCBwB0AAAAAADIQuAMAAAAAQAYCdwAAAAAAyEDgDgAAAAAAGQjcAQAAAAAgA4E7AAAAAABkIHAHAAAAAIAMBO4AAAAAAJCBwB0AAAAAADJoTeA+fEPZAAAAAACABjLCHQAAAAAAMhC4AwAAAABABgJ3AAAAAADIQOAOAAAAAAAZCNwBAAAAACADgTsAAAAAAGTQ6MD9vsNlAwAAAAAAGs4IdwAAAAAAyEDgDgAAAAAAGQjcAQAAAAAggykD9+PHj4ctW7aEoaGhsHPnznD27Nnykcvt27cvjI6Olkud5fR96VZfDwAAAAAAg2bKwP3AgQNh3bp14cyZM8Xy2NhYcd8tBerbt28vl0I4dOhQOHbsWPjEJz5R3J86dSocPHiwfBQAAAAAAAbLFQP3NLo9BeVr1qwJK1asCMuXLw9Hjx4tH70ojWRfv3592LVrV7kmhBtvvDEsW7asXApFe/Xq1eUSAAAAAAAMlilHuHcH5RcuXLhsWpmRkZGwadOmcqlj7dq14c477wwPPvhg2Lt3b9HeuHFj+SgAAAAAAAyWofGobF8mjXDfv39/GB4eLsLyNJL93LlzYdu2bcWI927VPO3pPk0f88gjj0xMM5NC9w0bNkwE82le9yndujmEN76/037sgyF8eHenXbN169ZiBD4AAPMvnQumdz0CANAezuGgf6YM3OtBeQrcz58/P+kHoNYD9+6v7b5PgfsV/uvCfYdDGPno6aI9/KpV4WNvLpoAACyQPXv2hB07dpRLAAC0gXM46J8rTimTpoVJ08mcPHmymEYmvRqW5mqfjjTqPM3/nkL79L1pKpqlS5eWjwIAAAAAwGCZcg73zZs3h2PHjoWVK1eGJUuWTEwJk0aqp2ljJpO+bt26dcWt+t401zsAAAAAAAyiK04pM59MKQMA0D7ejgwA0D7O4aB/phzhDgAAAAAATE3gDgAAAAAAGbQmcL/tprIBAAAAAAANZIQ7AAAAAABkIHAHAAAAAIAMBO4AAAAAAJCBwB0AAAAAADIQuAMAAAAAQAYCdwAAAAAAyEDgDgAAAAAAGQjcAQAAAAAgg0YH7g8fKRsAAAAAANBwRrgDAAAAAEAGAncAAAAAAMhA4A4AAAAAABkI3AEAAAAAIAOBOwAAAAAAZCBwBwAAAACADATuAAAAAACQgcAdAAAAAAAyELgDAAAAAEAGAncAAAAAAMhA4A4AAAAAABkI3AEAAAAAIAOBOwAAAAAAZCBwBwAAAACADATuAAAAAACQgcAdAAAAAAAyaE3gfvfNZQMAAAAAABrICHcAAAAAAMhA4A4AAAAAABkI3AEAAAAAIAOBOwAAAAAAZCBwBwAAAACADATuAAAAAACQgcAdAAAAAAAyaHTgPnaibAAAAAAAQMMZ4Q4AAAAAABkI3AEAAAAAIAOBOwAAAAAAZCBwBwAAAACADATuAAAAAACQgcAdAAAAAAAyELgDAAAAAEAGAncAAAAAAMhA4A4AAAAAABkI3AEAAAAAIAOBOwAAAAAAZCBwBwAAAACADATuAAAAAACQgcAdAAAAAAAyELgDAAAAAEAGAncAAAAAAMigHYH70lVlAwAAAAAAmskIdwAAAAAAyEDgDgAAAAAAGQjcAQAAAAAgA4E7AAAAAABkIHAHAAAAAIAMBO4AAAAAAJCBwB0AAAAAADJoduB+/nTZAAAAAACAZjPCHQAAAAAAMhC4AwAAAABABgJ3AAAAAADIQOAOAAAAAAAZCNwBAAAAACADgTsAAAAAAGQgcAcAAAAAgAwE7gAAAAAAkIHAHQAAAAAAMhC4AwAAAABABgJ3AAAAAADIQOAOAAAAAAAZCNwBAAAAACADgTsAAAAAAGQgcAcAAAAAgAwE7gAAAAAAkIHAHQAAAAAAMmhF4D58Q9kAAAAAAICGMsIdAAAAAAAyELgDAAAAAEAGAncAAAAAAMhA4A4AAAAAABkI3AEAAAAAIIOJwP348eNhy5YtYWhoKOzcuTOcPXu2fORy+/btC6Ojo0X70KFD4Y477ii+r7qln5N+Xvqaal36mvS1AAAAAAAwiCYC9wMHDoR169aFM2fOFMtjY2PFfbcUom/fvr1cCmHjxo3hoYceCuPj48Vt165dYcOGDWHlypXhwoUL4YEHHijWp69JXwsAAAAAAIOoCNzTaPRTp06FNWvWhBUrVoTly5eHo0ePFl9Ql0a2r1+/vgjVezl48GARsg8PDxfB/VNPPRVWr15dPjoz9x0uGwAAAAAA0AJD41EK3Pfv318E5WkUegrWz507F7Zt21YE8N2q6WSq+yRNQfOBD3ygGN2efkYK39/ylreUj4YipK9/fZpm5opu3RzCG9/faT/2wRA+vLvT7rJ169bihQIAAOZfOkdMgzMAAGgP53DQP9kC9zQ/+yOPPBLuuuuuy74nhfH3339/0bFHRkaKdSlwT1PNTCaNcB/56OmiPfyqVeFjby6aAAAsoD179oQdO3aUSwAAtIFzOOifiTncn3jiiWJamcqSJUt6hu2T+exnPxuWLl3a83vSuvTzzp8/X64BAAAAAIDBUgTua9euLeZaP3nyZDEaPY1uT3O1T1f6nhSmv+Y1rynXdOZzr0bAV3PEz+RnAgAAAABAm0yMcN+8eXM4duxYWLlyZTEafdOmTcX6FJqn8PxK0gekpg9LvfHGG8s1YeL709Qx69atKwL9ah0AAAAAAAyaYg73st1X5nAHAGgf838CALSPczjon4kR7gAAAAAAwOwJ3AEAAAAAIAOBOwAAAAAAZCBwBwAAAACADATuAAAAAACQgcAdAAAAAAAyELgDAAAAAEAGAncAAAAAAMhA4A4AAAAAABm0InC/7aayAQAAAAAADWWEOwAAAAAAZCBwBwAAAACADATuAAAAAACQgcAdAAAAAAAyELgDAAAAAEAGAncAAAAAAMhA4A4AAAAAABkI3AEAAAAAIIPGBu4PHykbAAAAAADQAka4AwAAAABABgJ3AAAAAADIQOAOAAAAAAAZCNwBAAAAACADgTsAAAAAAGQgcAcAAAAAgAwE7gAAAAAAkIHAHQAAAAAAMhC4AwAAAABABgJ3AAAAAADIQOAOAAAAAAAZCNwBAAAAACADgTsAAAAAAGQgcAcAAAAAgAwE7gAAAAAAkEErAve7by4bAAAAAADQUEa4AwAAAABABgJ3AAAAAADIQOAOAAAAAAAZCNwBAAAAACADgTsAAAAAAGQgcAcAAAAAgAwaG7iPnSgbAAAAAADQAka4AwAAAABABgJ3AAAAAADIQOAOAAAAAAAZCNwBAAAAACADgTsAAAAAAGQgcAcAAAAAgAwE7gAAAAAAkIHAHQAAAAAAMhC4AwAAAABABgJ3AAAAAADIQOAOAAAAAAAZCNwBAAAAACADgTsAAAAAAGQgcAcAAAAAgAwE7gAAAAAAkIHAHQAAAAAAMmh+4L50VdkAAAAAAIDmMsIdAAAAAAAyELgDAAAAAEAGAncAAAAAAMhA4A4AAAAAABkI3AEAAAAAIAOBOwAAAAAAZNDcwP386bIBAAAAAADNZ4Q7AAAAAABkIHAHAAAAAIAMBO4AAAAAAJCBwB0AAAAAADIQuAMAAAAAQAYCdwAAAAAAyEDgDgAAAAAAGQjcAQAAAAAgA4E7AAAAAABkIHAHAAAAAIAMBO4AAAAAAJCBwB0AAAAAADIQuAMAAAAAQAYCdwAAAAAAyEDgDgAAAAAAGTQ+cB++oWwAAAAAAECDGeEOAAAAAAAZCNwBAAAAACADgTsAAAAAAGQwZeB+/PjxsGXLljA0NBR27twZzp49Wz5yuX379oXR0dGJdvqe+q16DAAAAAAABs2UgfuBAwfCunXrwpkzZ4rlsbGx4r5bCtO3b99eLoUwMjISxsfHi9uxY8fCPffcEzZv3lw+CgAAAAAAg+WKgXsa3X7q1KmwZs2asGLFirB8+fJw9OjR8tGL0mj29evXh127dpVrLpVC+/S9a9euLdcAAAAAAMBgGRpPQ9AnkQL3/fv3h+Hh4bBx48YiWD937lzYtm1bEcB3q6aMqU8dc+jQofDII4+Eu+6665LvSVPMTOrWzSG88f2d9mMfDOHDuzvtHrZu3Vq8IAAAwPxL54JpIAUAAO3hHA76Z94D9/Q9SZpipi4F7pP91/cdjl//0dNFe/hVq8LH3lw0AQBYYHv27Ak7duwolwAAaAPncNA/U87h/sQTTxTTylSWLFnSM2zvJX3A6vnz58NrXvOacg0AAAAAAAymKwbuac711atXh5MnTxbheRrdnuZqn67Dhw8X9zfffHNxDwAAAAAAg2rKEe6bN28Ox44dCytXrixGt2/atKlYn6aNOXjwYNGeTDUyfroj4gEAAAAAoK2uOIf7fDKHOwBA+5j/EwCgfZzDQf9MOcIdAAAAAACYmsAdAAAAAAAyELgDAAAAAEAGAncAAAAAAMhA4A4AAAAAABkI3AEAAAAAIAOBOwAAAAAAZCBwBwAAAACADATuAAAAAACQQeMD99tuKhsAAAAAANBgRrgDAAAAAEAGAncAAAAAAMhA4A4AAAAAABkI3AEAAAAAIAOBOwAAAAAAZCBwBwAAAACADBoZuD98pGwAAAAAAEBLGOEOAAAAAAAZCNwBAAAAACADgTsAAAAAAGQgcAcAAAAAgAwE7gAAAAAAkIHAHQAAAAAAMhC4AwAAAABABgJ3AAAAAADIQOAOAAAAAAAZCNwBAAAAACADgTsAAAAAAGQgcAcAAAAAgAwE7gAAAAAAkEHjA/e7by4bAAAAAADQYEa4AwAAAABABgJ3AAAAAADIQOAOAAAAAAAZCNwBAAAAACADgTsAAAAAAGQgcAcAAAAAgAwaGbiPnSgbAAAAAADQEka4AwAAAABABgJ3AAAAAADIQOAOAAAAAAAZCNwBAAAAACADgTsAAAAAAGQgcAcAAAAAgAwE7gAAAAAAkIHAHQAAAAAAMhC4AwAAAABABgJ3AAAAAADIQOAOAAAAAAAZCNwBAAAAACADgTsAAAAAAGTQ7MB96aqyAQAAAAAAzWaEOwAAAAAAZCBwBwAAAACADATuAAAAAACQgcAdAAAAAAAyELgDAAAAAMCchfD/AZyA/QJ5QRwgAAAAAElFTkSuQmCC;" vertex="1" parent="1">
          <mxGeometry x="70" y="710" width="1500" height="501" as="geometry" />
        </mxCell>
        <mxCell id="p6Hplbf515QG52RDosSm-2" value="0.19" style="text;html=1;align=center;verticalAlign=middle;resizable=0;points=[];autosize=1;strokeColor=none;fillColor=none;fontSize=17;fontColor=#121212;labelBorderColor=none;labelBackgroundColor=#FFFFFF;" vertex="1" parent="1">
          <mxGeometry x="51" y="759" width="60" height="30" as="geometry" />
        </mxCell>
        <mxCell id="p6Hplbf515QG52RDosSm-3" value="0.185" style="text;html=1;align=center;verticalAlign=middle;resizable=0;points=[];autosize=1;strokeColor=none;fillColor=none;fontSize=17;fontColor=#121212;labelBorderColor=none;labelBackgroundColor=#FFFFFF;" vertex="1" parent="1">
          <mxGeometry x="41" y="853" width="70" height="30" as="geometry" />
        </mxCell>
        <mxCell id="p6Hplbf515QG52RDosSm-4" value="0.18" style="text;html=1;align=center;verticalAlign=middle;resizable=0;points=[];autosize=1;strokeColor=none;fillColor=none;fontSize=17;fontColor=#121212;labelBorderColor=none;labelBackgroundColor=#FFFFFF;" vertex="1" parent="1">
          <mxGeometry x="52" y="946" width="60" height="30" as="geometry" />
        </mxCell>
        <mxCell id="p6Hplbf515QG52RDosSm-5" value="0.175" style="text;html=1;align=center;verticalAlign=middle;resizable=0;points=[];autosize=1;strokeColor=none;fillColor=none;fontSize=17;fontColor=#121212;labelBorderColor=none;labelBackgroundColor=#FFFFFF;" vertex="1" parent="1">
          <mxGeometry x="41" y="1040" width="70" height="30" as="geometry" />
        </mxCell>
        <mxCell id="p6Hplbf515QG52RDosSm-6" value="0.17" style="text;html=1;align=center;verticalAlign=middle;resizable=0;points=[];autosize=1;strokeColor=none;fillColor=none;fontSize=17;fontColor=#121212;labelBorderColor=none;labelBackgroundColor=#FFFFFF;" vertex="1" parent="1">
          <mxGeometry x="51" y="1133" width="60" height="30" as="geometry" />
        </mxCell>
        <mxCell id="p6Hplbf515QG52RDosSm-7" value="" style="rounded=0;whiteSpace=wrap;html=1;fillColor=#FFFFFF;strokeColor=none;" vertex="1" parent="1">
          <mxGeometry x="666" y="1190" width="120" height="60" as="geometry" />
        </mxCell>
        <mxCell id="p6Hplbf515QG52RDosSm-8" value="10 s" style="text;html=1;align=center;verticalAlign=middle;resizable=0;points=[];autosize=1;strokeColor=none;fillColor=none;fontSize=17;fontColor=#121212;labelBorderColor=none;labelBackgroundColor=#FFFFFF;" vertex="1" parent="1">
          <mxGeometry x="696" y="1200" width="60" height="30" as="geometry" />
        </mxCell>
        <mxCell id="p6Hplbf515QG52RDosSm-9" value="" style="rounded=0;whiteSpace=wrap;html=1;fillColor=#FFFFFF;strokeColor=none;" vertex="1" parent="1">
          <mxGeometry x="1290" y="1190" width="120" height="60" as="geometry" />
        </mxCell>
        <mxCell id="p6Hplbf515QG52RDosSm-10" value="20 s" style="text;html=1;align=center;verticalAlign=middle;resizable=0;points=[];autosize=1;strokeColor=none;fillColor=none;fontSize=17;fontColor=#121212;labelBorderColor=none;labelBackgroundColor=#FFFFFF;" vertex="1" parent="1">
          <mxGeometry x="1320" y="1205" width="60" height="30" as="geometry" />
        </mxCell>
      </root>
    </mxGraphModel>
  </diagram>
</mxfile>
